<?xml version="1.0" standalone="no"?>
<!DOCTYPE svg PUBLIC "-//W3C//DTD SVG 20010904//EN"
 "http://www.w3.org/TR/2001/REC-SVG-20010904/DTD/svg10.dtd">
<svg version="1.0" xmlns="http://www.w3.org/2000/svg"
 width="500.000000pt" height="500.000000pt" viewBox="0 0 500.000000 500.000000"
 preserveAspectRatio="xMidYMid meet">

<g transform="translate(0.000000,500.000000) scale(0.100000,-0.100000)"
fill="#000000" stroke="none">
<path d="M4208 3017 c-8 -9 -28 -46 -43 -84 -39 -97 -40 -98 -84 -204 -56
-135 -83 -218 -76 -238 3 -10 14 -27 25 -39 17 -18 24 -20 40 -10 10 7 16 16
14 20 -3 4 2 8 10 8 10 0 18 18 26 53 6 28 14 57 18 63 8 12 100 49 107 43 2
-3 7 -27 10 -54 9 -79 16 -106 25 -100 4 3 11 -5 14 -18 l6 -22 15 25 c8 14
14 33 15 43 0 10 4 16 9 12 12 -7 25 94 18 142 -4 21 -8 67 -11 103 -2 36 -7
98 -10 139 -3 41 -10 77 -16 81 -6 4 -10 13 -8 20 3 13 -4 16 -58 26 -21 4
-36 1 -46 -9z m89 -79 c-3 -8 -6 -5 -6 6 -1 11 2 17 5 13 3 -3 4 -12 1 -19z
m-59 -193 c-2 -1 -13 -6 -26 -10 -20 -6 -22 -5 -13 12 6 10 16 32 23 48 l12
30 4 -39 c2 -21 2 -39 0 -41z"/>
<path d="M3835 2964 c-115 -24 -155 -42 -155 -69 0 -7 7 -15 15 -19 8 -3 15
-11 15 -17 0 -8 -4 -8 -15 1 -12 10 -15 10 -15 -3 0 -24 37 -39 79 -32 l37 6
-19 -108 c-20 -119 -28 -326 -12 -332 6 -2 19 14 29 35 l20 39 5 -29 6 -30 13
28 c6 15 12 40 12 56 0 16 5 32 11 35 6 4 8 13 5 20 -2 7 -2 16 2 20 4 3 19
70 33 148 l25 142 32 3 c21 2 30 7 26 14 -5 7 -2 9 8 5 13 -4 58 32 58 46 0 5
-87 67 -92 66 -1 0 -57 -12 -123 -25z"/>
<path d="M3525 2946 c-19 -14 -205 -480 -205 -513 0 -55 65 -100 77 -53 3 11
9 18 13 15 8 -5 21 30 34 88 5 20 19 33 50 49 57 27 76 20 76 -30 0 -60 11
-102 26 -102 8 0 14 -7 14 -15 0 -22 17 -18 23 5 8 33 9 35 23 45 8 6 14 33
15 65 3 86 -12 254 -23 268 -7 8 -7 12 1 12 6 0 11 8 11 18 0 15 -2 15 -11 2
-7 -11 -8 -4 -4 27 4 26 2 50 -6 65 -7 13 -12 28 -11 34 3 16 -85 34 -103 20z
m27 -255 c-2 -18 -11 -31 -24 -34 -15 -4 -18 -2 -13 11 4 9 12 30 17 45 13 35
26 19 20 -22z"/>
<path d="M3043 2899 c-49 -14 -68 -66 -45 -121 8 -20 6 -51 -9 -135 -11 -59
-17 -118 -14 -130 3 -13 1 -23 -5 -23 -5 0 -10 -11 -10 -24 0 -14 -4 -36 -10
-51 -8 -22 -7 -25 8 -23 14 2 16 -3 14 -29 -3 -29 -1 -33 22 -33 22 0 92 26
106 40 3 3 30 22 60 42 67 45 123 111 155 181 47 102 41 178 -18 235 -57 55
-187 91 -254 71z m154 -142 c57 -51 35 -136 -59 -229 -59 -59 -83 -72 -74 -40
2 9 8 37 11 62 4 25 10 49 13 54 3 5 6 27 7 50 2 23 9 57 15 76 7 19 15 41 16
48 5 17 42 7 71 -21z m-127 -146 c0 -6 -5 -13 -10 -16 -6 -4 -8 -10 -5 -15 3
-5 1 -11 -3 -14 -8 -5 -9 13 -3 47 2 10 21 9 21 -2z m-54 -237 c-4 -9 -9 -15
-11 -12 -3 3 -3 13 1 22 4 9 9 15 11 12 3 -3 3 -13 -1 -22z"/>
<path d="M2555 2836 c-37 -16 -92 -77 -111 -122 -8 -19 -14 -53 -14 -76 0 -62
34 -106 121 -158 l73 -43 -23 -18 c-34 -27 -89 -25 -100 4 -5 12 -6 28 -4 35
3 7 -3 12 -15 12 -12 0 -24 5 -27 10 -3 6 -17 10 -31 10 -17 0 -27 -8 -34 -26
-15 -39 -12 -97 6 -123 37 -53 161 -78 223 -46 60 31 113 126 91 164 -8 14
-10 14 -10 1 -1 -8 -5 -5 -11 8 -5 13 -7 28 -4 32 3 5 -11 21 -32 37 -78 59
-103 89 -103 125 0 33 14 58 33 58 5 0 7 -14 5 -30 -6 -38 17 -60 54 -53 38 7
80 80 76 131 -3 31 -9 40 -43 59 -45 26 -77 28 -120 9z m131 -422 c-4 -9 -9
-15 -11 -12 -3 3 -3 13 1 22 4 9 9 15 11 12 3 -3 3 -13 -1 -22z"/>
<path d="M2185 2792 c-55 -34 -102 -96 -113 -149 -19 -87 6 -133 110 -200 37
-24 68 -47 68 -52 0 -10 -39 -29 -66 -33 -28 -4 -54 19 -54 48 0 28 -29 34
-31 7 -1 -12 -4 -9 -8 7 -5 17 -15 26 -32 28 -22 3 -27 -2 -37 -35 -29 -100
38 -173 159 -173 59 0 102 22 138 70 27 38 42 113 20 108 -7 -2 -15 9 -18 26
-4 20 -24 44 -61 74 -30 25 -60 53 -66 64 -5 10 -13 16 -17 12 -3 -4 -2 8 3
26 17 58 52 83 44 31 -10 -61 57 -75 97 -20 53 74 49 127 -11 158 -50 26 -86
27 -125 3z m82 -358 c-3 -3 -12 -4 -19 -1 -8 3 -5 6 6 6 11 1 17 -2 13 -5z
m49 -62 c-18 -16 -18 -16 -6 6 6 13 14 21 18 18 3 -4 -2 -14 -12 -24z"/>
<path d="M1872 2745 c-50 -6 -96 -15 -100 -20 -16 -18 -74 -327 -76 -403 l-1
-74 40 -35 c43 -37 72 -40 139 -14 47 19 23 23 -37 8 -31 -8 -58 -12 -61 -9
-14 14 -2 21 47 27 61 8 117 26 117 37 0 10 1 11 -54 -8 -26 -9 -49 -14 -52
-11 -3 3 20 12 51 21 54 16 70 43 18 30 -20 -5 -24 -4 -18 6 6 10 1 12 -21 7
-16 -3 -37 -9 -47 -13 -17 -6 -18 -3 -12 42 10 72 9 71 69 85 65 14 106 46 46
35 l-35 -6 30 13 c17 8 34 12 38 10 5 -3 7 10 5 28 -3 33 -4 34 -51 32 -26 -1
-52 -5 -58 -9 -7 -4 -9 0 -6 12 3 11 8 36 12 56 6 41 8 41 97 53 53 7 74 24
31 26 -23 1 -20 3 15 12 38 9 43 13 39 33 -2 13 1 25 7 27 27 10 -90 11 -172
2z m-142 -503 c0 -15 -2 -15 -10 -2 -13 20 -13 33 0 25 6 -3 10 -14 10 -23z"/>
<path d="M1505 2706 c-62 -27 -112 -107 -145 -232 -52 -201 13 -352 133 -303
63 26 186 173 164 196 -8 7 -38 -22 -32 -31 3 -3 2 -4 -2 -1 -11 8 -12 35 -2
35 4 0 6 7 3 15 -7 17 -34 21 -34 5 0 -5 -5 -10 -12 -10 -7 0 -34 -21 -60 -47
l-47 -46 -7 27 c-16 66 21 228 61 266 l22 21 12 -46 c8 -30 15 -43 23 -39 7 5
9 2 5 -9 -7 -18 12 -35 22 -20 3 6 16 13 27 17 28 9 42 97 21 130 -23 33 -68
76 -83 76 -7 0 -18 2 -26 5 -7 2 -27 -2 -43 -9z"/>
<path d="M1137 2659 c-20 -11 -50 -38 -66 -60 -65 -89 -107 -284 -81 -378 23
-86 91 -123 158 -86 34 18 101 87 136 139 30 45 32 56 10 56 -8 0 -13 -4 -10
-9 3 -5 -2 -11 -12 -13 -11 -3 -19 0 -19 8 0 8 5 14 10 14 5 0 4 7 -3 15 -11
13 -16 12 -44 -7 -17 -13 -46 -38 -64 -58 -31 -32 -34 -33 -44 -16 -14 25 -4
137 17 199 13 40 45 87 58 87 2 0 9 -18 16 -40 7 -24 16 -38 23 -34 6 4 8 -1
3 -15 -5 -15 -2 -21 9 -21 9 0 16 5 16 11 0 6 7 8 16 5 8 -3 12 -2 9 4 -3 6 1
10 9 10 10 0 17 16 21 55 7 50 5 57 -21 89 -22 26 -91 69 -107 66 -1 -1 -19
-10 -40 -21z"/>
<path d="M791 2623 c-11 -13 -28 -45 -37 -71 -9 -26 -45 -117 -79 -202 -85
-210 -91 -232 -68 -270 9 -17 23 -30 29 -30 25 0 43 12 37 26 -3 9 0 14 7 12
8 -2 17 12 23 32 19 73 28 86 67 103 51 22 70 22 71 0 1 -10 3 -31 4 -48 3
-51 16 -95 26 -89 5 3 9 -2 9 -11 0 -26 24 -12 35 21 5 16 15 32 21 36 12 8
12 111 2 238 -3 36 -9 101 -13 145 -3 44 -11 82 -16 83 -5 2 -9 10 -9 18 0 8
-3 14 -7 14 -5 0 -25 4 -46 9 -33 8 -39 6 -56 -16z m39 -232 c0 -31 -4 -40
-22 -44 -12 -4 -23 -5 -24 -4 -2 4 37 87 41 87 3 0 5 -17 5 -39z"/>
</g>
</svg>
