<?xml version="1.0" standalone="no"?>
<!DOCTYPE svg PUBLIC "-//W3C//DTD SVG 20010904//EN"
 "http://www.w3.org/TR/2001/REC-SVG-20010904/DTD/svg10.dtd">
<svg version="1.0" xmlns="http://www.w3.org/2000/svg"
 width="500.000000pt" height="500.000000pt" viewBox="0 0 500.000000 500.000000"
 preserveAspectRatio="xMidYMid meet">

<g transform="translate(0.000000,500.000000) scale(0.100000,-0.100000)"
fill="#000000" stroke="none">
<path d="M3224 2905 c-3 -8 -16 -77 -28 -154 l-21 -139 -29 61 c-65 141 -83
172 -102 173 -11 1 -27 5 -38 9 -27 12 -50 -6 -58 -46 -17 -78 -59 -399 -56
-433 1 -21 8 -40 15 -43 7 -3 13 -11 13 -19 0 -19 24 -18 40 1 7 8 9 15 6 15
-4 0 -1 6 7 14 14 14 47 194 47 255 0 17 5 31 10 31 6 0 10 -7 10 -15 0 -8 4
-23 10 -33 5 -9 32 -65 59 -123 48 -105 61 -118 108 -119 32 0 54 73 68 220 3
36 12 110 21 165 30 205 30 189 6 183 -12 -4 -25 -2 -28 3 -9 15 -54 10 -60
-6z m-216 -241 c-3 -14 -5 -12 -10 9 -3 19 -2 25 4 19 6 -6 8 -18 6 -28z"/>
<path d="M2747 2853 c-14 -22 -57 -367 -55 -439 1 -44 4 -69 6 -56 6 35 18 25
14 -12 -3 -24 1 -35 12 -39 10 -4 16 -1 16 9 0 8 5 12 10 9 6 -3 10 3 10 14 0
12 4 21 9 21 9 0 26 87 35 175 2 22 14 100 27 172 12 73 20 135 17 138 -10 10
-96 17 -101 8z"/>
<path d="M2436 2796 c-95 -98 -181 -344 -156 -451 17 -73 102 -116 163 -81 36
20 44 20 50 -1 4 -17 5 -17 6 0 0 10 6 15 11 12 6 -3 7 -17 4 -31 -5 -18 -2
-24 10 -24 9 0 16 7 16 15 0 9 7 32 17 53 9 20 15 41 14 45 -1 5 3 6 9 2 6 -3
10 4 11 17 0 13 2 32 5 43 2 11 5 32 7 47 1 16 6 28 10 28 5 0 6 4 3 9 -3 5 4
11 16 14 12 4 19 9 15 13 -3 4 -2 14 3 24 7 13 2 19 -25 29 -55 20 -181 -7
-194 -42 -9 -23 9 -72 29 -79 6 -2 -2 -19 -18 -37 -75 -90 -70 60 7 224 21 44
45 86 54 94 16 12 17 9 17 -36 0 -47 20 -93 41 -93 5 0 25 16 44 36 27 28 35
44 35 73 0 63 -18 98 -61 120 -63 33 -93 28 -143 -23z"/>
<path d="M2051 2782 c-18 -3 -32 -23 -66 -95 -23 -51 -48 -122 -55 -159 -41
-223 71 -370 201 -261 42 36 72 85 103 171 28 78 33 143 15 207 -12 42 -46 88
-60 79 -5 -3 -17 0 -27 5 -13 7 -23 6 -31 -2 -10 -9 -11 -8 -6 5 12 30 -5 40
-25 16 l-19 -23 5 27 c5 30 -1 36 -35 30z m80 -111 c-12 -8 -12 -18 4 -66 15
-49 16 -65 6 -110 -7 -30 -26 -73 -43 -96 -29 -41 -31 -42 -45 -23 -36 48 8
285 55 297 29 8 37 7 23 -2z"/>
<path d="M1751 2747 c-10 -13 -58 -289 -66 -377 -3 -38 -10 -60 -23 -70 -28
-23 -41 -52 -38 -84 6 -49 20 -50 121 -12 22 8 62 15 88 16 30 0 46 4 42 10
-3 6 1 10 9 10 17 0 48 39 40 52 -13 21 -89 50 -119 45 -36 -6 -36 -17 -5 103
13 46 15 59 24 125 3 22 10 64 16 94 14 75 13 80 -15 46 l-25 -30 4 33 c3 31
-5 44 -31 48 -7 1 -16 -3 -22 -9z"/>
<path d="M2578 2314 c-5 -4 -8 -21 -8 -38 1 -26 2 -28 11 -13 11 19 8 63 -3
51z"/>
</g>
</svg>
