<?xml version="1.0" standalone="no"?>
<!DOCTYPE svg PUBLIC "-//W3C//DTD SVG 20010904//EN"
 "http://www.w3.org/TR/2001/REC-SVG-20010904/DTD/svg10.dtd">
<svg version="1.0" xmlns="http://www.w3.org/2000/svg"
 width="500.000000pt" height="500.000000pt" viewBox="0 0 500.000000 500.000000"
 preserveAspectRatio="xMidYMid meet">

<g transform="translate(0.000000,500.000000) scale(0.100000,-0.100000)"
fill="#000000" stroke="none">
<path d="M4608 3069 c-16 -9 -35 -50 -103 -219 -102 -250 -126 -340 -94 -340
5 0 9 -7 9 -15 0 -16 17 -19 44 -9 8 3 12 12 9 20 -3 10 0 12 10 9 10 -4 17 3
22 22 5 15 7 32 7 36 -5 20 31 66 63 81 54 26 69 19 72 -34 6 -85 13 -110 29
-103 8 3 14 1 12 -5 -2 -5 2 -11 7 -12 6 -1 15 12 21 30 6 17 15 30 20 28 11
-4 19 156 9 180 -4 10 -6 48 -5 86 1 46 -2 66 -9 61 -6 -3 -11 -1 -11 4 0 6 6
11 13 11 8 0 9 3 1 8 -6 4 -10 31 -10 61 1 34 -3 56 -11 58 -7 2 -10 10 -7 17
6 15 -77 37 -98 25z m22 -248 c0 -30 -4 -40 -20 -44 -11 -3 -20 -3 -20 -1 0 8
32 84 36 84 2 0 4 -17 4 -39z"/>
<path d="M4295 3023 c-11 -2 -51 -11 -90 -19 -38 -8 -80 -17 -92 -20 -12 -2
-28 -14 -34 -26 -10 -18 -8 -24 12 -40 l24 -20 -22 5 c-27 6 -30 -11 -6 -29
11 -7 34 -10 59 -7 l40 5 -17 -109 c-26 -168 -36 -264 -26 -270 4 -3 7 -16 5
-31 -5 -41 17 -36 38 10 l19 43 6 -35 5 -35 13 45 c7 25 18 65 26 90 8 25 23
101 35 170 28 165 24 157 70 163 25 3 47 14 60 29 l19 23 -37 32 c-35 31 -59
37 -107 26z"/>
<path d="M3910 2980 c-10 -10 -27 -44 -39 -76 -12 -33 -51 -130 -87 -217 -36
-87 -68 -173 -71 -191 -6 -36 19 -96 40 -96 22 0 40 17 32 31 -6 9 -4 11 8 6
11 -4 19 3 26 25 6 17 9 33 6 36 -11 11 27 61 59 76 63 30 74 24 80 -46 7 -86
7 -88 23 -88 7 0 13 -7 13 -15 0 -25 17 -17 26 13 4 15 7 30 6 35 -1 4 5 7 13
7 20 0 22 39 9 225 -4 55 -6 108 -6 118 0 9 -4 15 -9 11 -6 -4 -8 12 -3 44 4
32 2 52 -5 56 -6 4 -11 15 -11 25 0 13 -13 21 -46 28 -40 9 -49 8 -64 -7z m30
-239 c0 -30 -4 -40 -20 -44 -11 -3 -20 -3 -20 -1 0 8 32 84 36 84 2 0 4 -17 4
-39z m87 -113 c-3 -8 -6 -5 -6 6 -1 11 2 17 5 13 3 -3 4 -12 1 -19z"/>
<path d="M3417 2938 c-33 -12 -44 -48 -29 -102 8 -31 6 -63 -9 -150 -11 -61
-17 -122 -14 -134 4 -15 2 -21 -5 -17 -6 4 -10 -4 -10 -19 0 -13 -4 -36 -10
-50 -7 -20 -6 -25 8 -28 11 -2 16 -13 17 -33 0 -27 3 -30 27 -27 26 3 62 17
123 49 51 27 159 144 187 203 33 70 41 119 27 175 -14 57 -52 91 -133 121 -70
25 -132 29 -179 12z m166 -132 c55 -51 45 -116 -33 -209 -38 -45 -87 -83 -96
-74 -4 4 22 123 30 135 4 7 2 12 -4 12 -8 0 -8 6 0 21 7 11 9 27 6 34 -2 7 2
21 9 32 8 10 15 30 15 46 0 22 5 27 24 27 12 0 35 -11 49 -24z m-130 -158
c-13 -22 -14 -50 -1 -42 7 4 8 3 4 -5 -12 -19 -25 -3 -22 27 4 33 4 32 17 32
6 0 7 -5 2 -12z m-52 -231 c-10 -9 -11 -8 -5 6 3 10 9 15 12 12 3 -3 0 -11 -7
-18z"/>
<path d="M2971 2877 c-5 -13 -12 -46 -16 -73 -4 -27 -16 -100 -26 -162 -10
-63 -19 -131 -19 -153 0 -27 -5 -41 -19 -48 -23 -13 -23 -17 -45 288 -3 41
-10 77 -16 81 -6 4 -10 13 -8 20 3 12 -5 15 -63 27 -34 7 -50 -11 -84 -94 -39
-97 -40 -98 -84 -204 -56 -135 -83 -218 -76 -238 3 -10 14 -27 25 -39 17 -18
24 -20 40 -10 10 7 16 16 14 20 -3 4 2 8 10 8 10 0 18 18 26 53 6 28 14 57 18
63 8 12 100 49 107 43 2 -3 7 -27 10 -54 9 -79 16 -106 25 -100 4 3 11 -5 15
-18 6 -20 8 -19 24 15 15 32 19 35 32 24 12 -12 25 -10 84 10 39 12 92 23 118
24 30 0 46 4 42 10 -3 6 -1 10 5 10 15 0 50 42 43 52 -12 21 -98 50 -131 45
-29 -5 -32 -4 -21 9 13 15 14 24 52 245 18 107 20 136 10 136 -7 0 -17 -14
-22 -31 -9 -29 -9 -30 -12 -6 -1 14 -2 32 -1 40 2 34 -45 40 -57 7z m-164
-109 c-3 -8 -6 -5 -6 6 -1 11 2 17 5 13 3 -3 4 -12 1 -19z m-59 -193 c-2 -1
-13 -6 -26 -10 -20 -6 -22 -5 -13 12 6 10 16 32 23 48 l12 30 4 -39 c2 -21 2
-39 0 -41z m252 -61 c0 -2 -7 -4 -15 -4 -8 0 -15 4 -15 10 0 5 7 7 15 4 8 -4
15 -8 15 -10z"/>
<path d="M2433 2818 c-10 -13 -43 -211 -43 -260 0 -47 -16 -31 -49 50 -41 97
-76 151 -98 151 -10 0 -30 3 -45 7 -37 9 -42 -6 -68 -191 -42 -290 -44 -333
-22 -328 6 2 14 -6 17 -17 6 -20 35 -28 35 -11 0 5 6 16 13 23 19 19 51 200
44 245 -4 24 -3 33 2 24 7 -11 10 -9 13 10 4 22 5 23 12 4 19 -50 27 -66 72
-160 30 -60 55 -100 64 -100 8 0 18 -4 22 -9 4 -6 16 -6 31 1 28 13 32 31 72
323 35 249 34 235 10 237 -11 1 -32 5 -46 8 -15 4 -29 2 -36 -7z m-226 -250
c-3 -7 -5 -2 -5 12 0 14 2 19 5 13 2 -7 2 -19 0 -25z"/>
<path d="M1847 2753 c-22 -6 -79 -123 -102 -208 -22 -84 -21 -203 3 -257 24
-54 41 -68 90 -75 92 -12 173 83 217 254 19 72 8 160 -23 203 -23 30 -81 48
-94 28 -7 -10 -8 -8 -7 7 2 35 -1 46 -11 40 -6 -4 -8 -10 -5 -15 3 -4 -2 -11
-11 -14 -11 -4 -14 0 -12 16 3 23 -11 30 -45 21z m89 -160 c23 -79 14 -149
-26 -208 -17 -25 -35 -45 -40 -45 -12 0 -30 58 -30 99 0 70 47 211 70 211 5 0
17 -26 26 -57z"/>
<path d="M1538 2726 c-73 -32 -137 -127 -138 -202 0 -56 31 -100 109 -151 88
-58 88 -59 53 -77 -55 -29 -93 -14 -96 37 -1 13 -7 22 -17 22 -9 0 -23 6 -32
13 -38 32 -64 -1 -66 -81 -2 -67 80 -127 172 -127 63 0 130 55 155 128 16 47
-3 89 -64 138 -84 69 -94 81 -94 117 0 22 8 41 21 53 21 19 21 19 19 -11 -4
-45 8 -65 41 -65 40 0 81 56 87 120 l4 48 -50 26 c-57 29 -65 30 -104 12z m50
-371 c-3 -3 -9 2 -12 12 -6 14 -5 15 5 6 7 -7 10 -15 7 -18z m82 -10 c0 -5 -5
-3 -10 5 -5 8 -10 20 -10 25 0 6 5 3 10 -5 5 -8 10 -19 10 -25z m-6 -24 c3 -5
-1 -14 -8 -20 -12 -10 -13 -8 -9 8 6 23 9 25 17 12z"/>
<path d="M1060 2666 c-66 -19 -91 -37 -84 -61 8 -25 22 -34 46 -30 23 5 23 -4
1 -21 -25 -19 0 -18 52 1 59 21 122 19 134 -4 8 -15 3 -26 -25 -60 -20 -23
-44 -46 -54 -51 -17 -9 -18 -6 -15 34 3 36 1 44 -11 39 -8 -3 -14 -13 -14 -22
0 -10 -12 -28 -27 -42 -19 -16 -23 -18 -12 -4 27 35 30 43 12 41 -9 -2 -19 -8
-21 -14 -2 -7 -8 -12 -14 -12 -6 0 -4 8 4 18 18 20 20 52 4 46 -10 -4 -31 -82
-62 -224 -13 -60 -16 -170 -5 -170 6 0 11 7 11 15 0 8 4 15 10 15 6 0 6 -9 1
-22 -11 -29 -4 -48 17 -48 20 0 45 36 36 52 -4 5 -1 14 6 18 6 4 15 35 19 68
4 34 10 64 13 67 3 3 17 -13 31 -37 32 -54 62 -83 109 -103 66 -27 116 -14
120 32 4 52 -2 62 -43 74 -25 8 -52 26 -70 48 l-29 35 46 41 c38 34 49 51 64
108 22 79 17 132 -14 152 -26 16 -115 35 -159 34 -18 0 -52 -6 -77 -13z m83
-73 c-7 -2 -19 -2 -25 0 -7 3 -2 5 12 5 14 0 19 -2 13 -5z"/>
<path d="M768 2621 c-31 -3 -61 -11 -66 -16 -15 -17 -74 -336 -76 -408 -1 -67
0 -69 38 -104 35 -32 42 -35 82 -29 44 6 113 35 84 35 -8 1 -37 -6 -64 -14
-31 -9 -53 -12 -59 -6 -15 15 2 32 26 26 30 -7 129 17 134 32 3 9 -6 9 -37 -2
-24 -8 -52 -15 -64 -14 -13 0 -9 4 14 10 66 18 92 31 79 40 -7 4 -21 3 -30 -2
-26 -14 -33 -11 -18 8 15 17 16 17 -59 -3 -23 -7 -23 -5 -17 42 9 68 12 74 33
74 29 0 112 31 112 42 0 5 -10 6 -21 3 -15 -5 -19 -4 -15 4 4 6 16 11 27 11
10 0 19 5 19 10 0 6 -7 10 -16 10 -8 0 -12 5 -9 10 4 6 11 7 17 4 6 -4 9 -1 6
7 -3 10 -22 14 -61 14 -46 0 -56 3 -52 15 2 8 7 31 10 52 7 39 22 47 85 48 19
0 46 7 60 15 l25 14 -35 2 -35 1 39 9 c49 12 48 11 41 41 -6 22 -11 24 -73 25
-37 0 -93 -2 -124 -6z m-108 -499 c0 -15 -2 -15 -10 -2 -13 20 -13 33 0 25 6
-3 10 -14 10 -23z"/>
<path d="M340 2581 c-46 -15 -89 -41 -100 -60 -25 -48 0 -104 41 -94 20 6 21
4 14 -33 -25 -131 -51 -335 -44 -346 6 -9 9 -8 10 7 1 11 5 3 8 -18 7 -42 24
-54 29 -19 2 12 8 20 13 17 5 -4 9 0 9 7 0 10 2 10 9 -1 6 -9 13 9 22 53 12
61 15 66 38 66 83 0 137 43 187 149 31 65 34 137 7 184 -36 62 -172 111 -243
88z m119 -120 c7 -5 16 -32 19 -59 5 -61 -23 -117 -63 -124 -30 -6 -31 -2 -9
110 16 80 24 91 53 73z"/>
</g>
</svg>
