<?xml version="1.0" standalone="no"?>
<!DOCTYPE svg PUBLIC "-//W3C//DTD SVG 20010904//EN"
 "http://www.w3.org/TR/2001/REC-SVG-20010904/DTD/svg10.dtd">
<svg version="1.0" xmlns="http://www.w3.org/2000/svg"
 width="500.000000pt" height="500.000000pt" viewBox="0 0 500.000000 500.000000"
 preserveAspectRatio="xMidYMid meet">

<g transform="translate(0.000000,500.000000) scale(0.100000,-0.100000)"
fill="#000000" stroke="none">
<path d="M2902 3346 c-53 -7 -98 -18 -106 -27 -16 -16 -92 -393 -99 -484 -5
-83 2 -108 46 -155 31 -32 46 -40 73 -40 51 0 121 20 136 38 11 13 10 15 -12
8 -123 -34 -134 -36 -142 -24 -12 21 8 31 64 33 65 2 138 24 138 41 0 9 -11 9
-47 -3 -56 -17 -108 -25 -98 -15 4 4 10 7 13 8 48 4 132 33 132 45 0 11 -5 11
-55 -1 -36 -8 -38 -7 -21 6 31 22 9 30 -40 12 -51 -18 -59 -12 -50 40 16 91
15 90 54 98 20 4 42 8 48 10 26 5 84 37 84 46 0 6 -12 8 -27 4 -27 -6 -27 -6
-8 9 11 9 25 13 32 11 7 -3 13 1 13 9 0 9 -9 15 -22 15 -18 0 -20 2 -8 9 8 6
18 7 22 5 4 -3 8 2 8 10 0 21 -41 30 -102 23 -39 -5 -49 -3 -45 7 3 7 9 34 12
60 9 55 21 63 101 72 59 6 104 21 104 35 0 4 -16 5 -35 2 -20 -3 -35 -1 -35 4
0 6 21 13 46 16 56 6 73 19 54 42 -12 14 -11 18 1 26 10 7 6 9 -16 9 -16 0
-50 2 -75 4 -25 2 -87 -1 -138 -8z m25 -382 c-3 -3 -12 -4 -19 -1 -8 3 -5 6 6
6 11 1 17 -2 13 -5z m-187 -247 c0 -18 -2 -19 -10 -7 -13 20 -13 43 0 35 6 -3
10 -16 10 -28z"/>
<path d="M2562 3293 c-5 -10 -17 -70 -26 -133 -10 -63 -20 -125 -22 -136 -3
-17 -13 -23 -55 -28 -28 -4 -53 -6 -54 -4 -1 2 6 54 17 116 16 93 18 119 8
143 -10 24 -18 29 -46 29 -20 0 -34 5 -34 13 0 6 -13 -2 -29 -19 -21 -23 -31
-47 -36 -85 -14 -117 -36 -233 -46 -245 -6 -7 -12 -46 -14 -86 -3 -40 -11
-116 -18 -168 -12 -81 -12 -98 0 -115 13 -18 13 -17 10 18 -3 25 -1 35 5 29 6
-6 10 -29 10 -52 -1 -26 4 -43 13 -46 15 -6 55 25 55 43 0 7 7 10 15 7 12 -5
15 2 15 30 0 20 5 36 10 36 6 0 10 21 9 48 0 49 3 70 19 111 7 19 21 28 60 37
62 13 60 22 35 -141 -9 -61 -13 -124 -9 -140 7 -29 20 -25 30 10 3 11 3 4 0
-16 -7 -59 48 -83 71 -31 5 12 17 25 26 27 12 4 19 23 24 63 4 31 9 66 11 77
4 24 49 336 64 451 6 45 15 96 20 115 7 23 6 35 -2 40 -16 10 -38 -1 -38 -20
0 -9 -5 -23 -10 -31 -7 -11 -9 -4 -7 25 2 39 1 40 -35 43 -27 2 -39 -1 -46
-15z"/>
<path d="M2060 3250 c-19 -4 -82 -17 -140 -29 -75 -16 -110 -28 -122 -43 -22
-25 -23 -44 -3 -52 8 -3 15 -13 15 -22 0 -12 -3 -14 -13 -6 -10 8 -13 6 -14
-7 -2 -27 41 -43 93 -35 52 8 50 19 24 -144 -11 -67 -22 -151 -25 -185 -3 -34
-8 -77 -11 -95 -3 -19 0 -39 6 -47 6 -7 9 -28 8 -46 -2 -25 1 -34 12 -34 8 0
16 10 18 23 2 12 7 22 12 22 4 0 11 11 14 25 10 40 29 31 22 -10 -4 -19 -5
-35 -2 -35 14 0 35 62 41 125 5 43 11 63 15 51 4 -11 13 22 24 85 17 104 43
244 52 286 3 18 14 24 44 29 22 4 37 10 35 14 -3 5 3 6 14 3 27 -7 68 52 51
72 -7 8 -16 15 -21 15 -4 0 -20 11 -35 25 -28 26 -51 29 -114 15z"/>
<path d="M4575 2693 c-10 -32 -26 -103 -36 -157 -14 -69 -27 -110 -44 -132
-14 -18 -25 -37 -25 -43 0 -16 -26 -13 -40 4 -7 8 -9 22 -6 32 6 15 5 15 -14
-2 -11 -10 -20 -13 -20 -8 0 6 6 16 13 22 8 6 14 26 15 43 0 18 6 70 13 116 7
45 9 85 5 89 -4 4 -15 2 -26 -4 -14 -10 -19 -9 -24 2 -7 19 -60 19 -75 1 -7
-8 -14 -70 -18 -150 -6 -142 -6 -142 35 -137 10 2 10 -5 -2 -28 -19 -36 -11
-64 15 -56 11 4 19 3 18 -2 -5 -31 21 -47 37 -21 4 6 3 8 -3 5 -18 -11 -22 18
-6 38 15 19 15 19 10 -2 -5 -24 8 -32 16 -10 4 9 8 9 15 -2 6 -8 18 -16 27
-17 11 -2 13 1 6 10 -7 8 -4 12 10 12 16 0 19 -5 14 -21 -4 -11 -9 -84 -12
-162 -5 -132 -4 -143 15 -168 l21 -26 4 43 4 43 1 -46 c2 -44 13 -59 42 -59
18 0 38 70 43 150 6 86 20 191 37 265 5 22 21 103 35 180 15 77 33 160 41 184
12 36 12 46 2 53 -7 4 -18 6 -25 3 -7 -2 -15 0 -18 5 -4 6 -24 10 -45 10 -38
0 -39 0 -55 -57z m-178 -345 c-3 -8 -6 -5 -6 6 -1 11 2 17 5 13 3 -3 4 -12 1
-19z"/>
<path d="M3877 2655 c-75 -20 -99 -40 -95 -78 3 -29 7 -32 36 -34 41 -2 54
-12 24 -20 -12 -3 -22 -9 -22 -14 0 -13 29 -11 80 7 91 32 167 28 172 -9 4
-26 -2 -36 -64 -99 -52 -52 -74 -61 -63 -27 4 12 9 37 10 56 3 28 1 33 -11 29
-9 -3 -18 -6 -20 -6 -2 0 -4 -8 -4 -17 0 -10 -4 -24 -9 -31 -6 -10 -11 -9 -22
4 -12 16 -12 17 1 9 13 -7 13 -6 1 6 -11 11 -14 11 -18 1 -7 -19 -35 -44 -42
-37 -3 4 1 12 11 19 23 17 27 49 6 54 -12 2 -18 -7 -23 -40 -4 -24 -20 -92
-35 -153 -35 -138 -48 -295 -25 -295 8 0 15 9 15 19 0 11 5 23 10 26 7 4 8
-11 4 -44 -6 -48 -5 -50 18 -48 27 2 43 15 52 45 5 14 3 22 -4 22 -6 0 -10 6
-7 13 2 6 9 11 15 10 12 -3 17 20 28 122 6 55 7 58 20 40 96 -135 107 -148
148 -165 23 -11 61 -22 84 -26 36 -6 45 -3 66 17 18 19 23 34 22 74 -1 46 -3
50 -31 55 -50 11 -87 33 -119 73 l-30 38 56 52 c46 42 60 64 77 115 12 34 21
88 21 120 0 49 -4 62 -24 81 -48 45 -209 64 -309 36z m106 -92 c-7 -2 -21 -2
-30 0 -10 3 -4 5 12 5 17 0 24 -2 18 -5z m-113 -187 c0 -2 -8 -10 -17 -17 -16
-13 -17 -12 -4 4 13 16 21 21 21 13z"/>
<path d="M3519 2618 c-17 -15 -48 -83 -120 -263 -109 -275 -131 -330 -135
-334 -2 -2 -16 5 -31 15 -20 13 -45 18 -88 16 -33 0 -55 2 -50 6 17 12 35 56
31 77 -2 11 2 34 9 51 12 28 23 89 31 169 1 17 4 32 5 35 3 6 4 15 13 75 4 28
10 59 12 70 4 14 3 16 -4 7 -5 -8 -13 -14 -18 -14 -5 0 -15 -12 -22 -27 l-12
-26 4 28 c2 15 0 27 -4 27 -3 0 -6 10 -6 23 1 17 -5 23 -25 25 -14 2 -30 -3
-36 -10 -17 -21 -84 -432 -81 -497 1 -42 -12 -66 -42 -76 -22 -7 -40 -51 -35
-85 2 -14 4 -30 4 -37 2 -24 41 -23 113 2 63 23 116 32 193 35 l20 1 -20 15
c-19 15 -19 15 10 8 36 -8 57 -23 50 -35 -3 -4 4 -13 15 -19 25 -13 81 17 58
31 -9 6 -7 9 8 9 20 0 32 23 39 75 0 6 6 26 13 45 10 30 21 39 72 59 41 17 64
21 71 14 5 -5 12 -38 14 -72 5 -90 14 -121 31 -114 9 3 14 -2 14 -16 0 -52 42
-5 44 49 1 8 8 15 16 15 17 0 21 23 21 145 -1 47 -4 86 -8 87 -5 2 -6 44 -4
94 2 65 0 89 -8 85 -6 -4 -11 -3 -11 3 0 5 5 13 10 16 6 4 8 11 4 16 -3 5 -10
6 -16 3 -7 -5 -8 -2 -3 6 8 12 8 27 6 106 -1 14 -5 23 -10 20 -12 -8 -22 20
-14 40 4 10 1 15 -8 13 -12 -2 -32 2 -90 17 -8 2 -22 -2 -30 -8z m108 -110
c-3 -8 -6 -5 -6 6 -1 11 2 17 5 13 3 -3 4 -12 1 -19z m-73 -198 c-1 -8 -3 -25
-3 -36 -1 -15 -9 -23 -26 -26 -30 -6 -30 -6 -3 60 17 41 24 49 29 35 3 -10 5
-25 3 -33z m93 18 c-3 -8 -6 -5 -6 6 -1 11 2 17 5 13 3 -3 4 -12 1 -19z m16
-158 c3 -11 1 -20 -4 -20 -5 0 -9 9 -9 20 0 11 2 20 4 20 2 0 6 -9 9 -20z
m-574 -63 c8 -10 7 -14 -4 -14 -8 0 -15 6 -15 14 0 7 2 13 4 13 2 0 9 -6 15
-13z"/>
<path d="M2835 2528 c-6 -16 21 -88 34 -88 8 0 34 41 37 58 3 18 -16 14 -24
-5 -9 -24 -33 -28 -25 -5 3 9 11 23 17 31 9 12 8 13 -6 8 -9 -3 -19 -1 -21 6
-3 8 -7 6 -12 -5z"/>
<path d="M2932 2477 c-10 -11 -20 -58 -24 -104 -1 -7 -5 -13 -9 -13 -5 0 -7
18 -5 40 3 39 3 40 -15 24 -10 -9 -16 -22 -12 -28 3 -6 2 -8 -2 -3 -11 10 -45
-22 -39 -37 3 -7 -5 -21 -16 -31 -20 -18 -20 -20 -3 -26 17 -7 17 -8 1 -8 -10
-1 -19 -9 -19 -18 -10 -130 -52 -247 -107 -296 -19 -18 -20 -18 -36 5 -9 12
-16 41 -16 63 0 50 25 243 39 305 15 65 14 101 -3 94 -7 -3 -20 2 -29 10 -24
24 -72 20 -84 -6 -16 -32 -50 -213 -64 -335 -15 -132 -1 -211 44 -249 40 -34
72 -46 125 -46 89 0 166 80 217 229 25 72 66 285 64 331 -1 15 2 46 6 70 8 44
5 51 -13 29z m-292 -69 c0 -18 -2 -20 -9 -8 -6 8 -7 18 -5 22 9 14 14 9 14
-14z"/>
<path d="M2823 2452 c2 -18 0 -35 -5 -38 -4 -3 -8 -12 -8 -20 0 -11 4 -10 18
4 20 19 21 25 3 62 -11 24 -11 24 -8 -8z"/>
<path d="M2335 2450 c-10 -11 -23 -20 -30 -20 -17 0 -66 -72 -114 -167 -23
-46 -43 -83 -46 -83 -2 0 -16 36 -30 81 -14 46 -35 90 -48 101 -17 16 -18 19
-4 14 11 -3 16 -2 12 4 -9 14 -35 12 -35 -2 0 -10 -2 -10 -8 -1 -10 17 -63 35
-80 28 -8 -3 -12 -8 -9 -11 3 -4 -2 -14 -12 -23 -20 -17 -74 -248 -108 -461
-10 -63 -19 -101 -21 -84 -3 26 -8 32 -46 42 -49 13 -95 47 -115 86 -14 25
-12 28 41 78 61 58 85 113 95 219 5 51 3 58 -23 87 -25 27 -42 34 -113 48 -82
15 -107 14 -216 -9 -45 -10 -73 -31 -79 -59 -8 -40 -2 -48 39 -46 47 2 53 -7
18 -25 -25 -14 -26 -16 -10 -23 10 -3 28 -2 40 3 58 27 82 33 138 33 68 0 79
-12 59 -60 -13 -30 -92 -110 -110 -110 -6 0 -8 22 -5 55 3 34 1 57 -7 61 -7 4
-8 3 -4 -4 4 -7 3 -12 -3 -12 -5 0 -15 -16 -21 -35 -6 -19 -16 -38 -22 -41 -6
-4 -8 -2 -5 4 11 16 -3 41 -19 35 -11 -4 -13 2 -9 28 3 19 3 28 -1 21 -3 -6
-10 -10 -15 -7 -10 7 -22 -36 -23 -82 -1 -18 -4 -33 -8 -33 -18 0 -68 -298
-60 -358 2 -13 9 -21 15 -19 7 2 11 11 9 20 -1 8 3 19 9 23 9 5 11 -5 6 -38
-6 -45 -6 -46 23 -50 21 -3 30 0 30 9 0 7 4 13 9 13 5 0 11 11 13 25 3 13 1
22 -3 19 -15 -9 -10 13 5 25 7 6 16 41 20 79 8 84 19 104 36 71 29 -55 96
-132 132 -150 22 -11 62 -23 89 -26 41 -5 53 -2 67 13 10 10 19 23 19 27 3 22
13 16 28 -17 13 -26 24 -36 41 -36 26 0 41 16 22 23 -8 3 -6 6 5 6 9 1 17 6
17 12 0 5 4 8 9 5 12 -8 28 52 52 204 12 74 25 138 28 142 3 4 15 -20 25 -52
11 -33 23 -60 28 -60 4 0 8 -9 8 -20 0 -16 42 -70 54 -70 2 0 17 7 32 15 22
11 45 46 91 137 l63 123 -7 -54 c-3 -29 -6 -88 -7 -131 -1 -43 -4 -76 -8 -74
-4 3 -6 -22 -5 -55 2 -49 6 -63 26 -80 13 -12 28 -21 33 -21 18 0 38 29 39 57
0 15 3 22 6 16 10 -27 22 -11 27 40 16 153 26 244 30 265 6 28 29 246 30 286
1 36 -23 47 -32 15 l-6 -24 -6 25 c-8 34 -58 40 -85 10z m-785 -160 c-8 -5
-22 -9 -30 -9 -10 0 -8 3 5 9 27 12 43 12 25 0z m-137 -162 c-10 -18 -20 -6
-15 19 5 24 6 25 12 8 4 -11 6 -23 3 -27z m10 -42 c-10 -13 -20 -22 -22 -20
-4 4 29 44 36 44 2 0 -4 -11 -14 -24z m887 -196 c0 -5 -5 -10 -11 -10 -5 0 -7
5 -4 10 3 6 8 10 11 10 2 0 4 -4 4 -10z m70 -10 c0 -13 -6 -20 -17 -19 -11 0
-13 3 -5 6 6 2 12 11 12 19 0 8 2 14 5 14 3 0 5 -9 5 -20z m-83 -52 c-3 -7 -5
-2 -5 12 0 14 2 19 5 13 2 -7 2 -19 0 -25z"/>
<path d="M1011 2331 c-28 -8 -53 -51 -114 -203 -9 -20 -23 -81 -32 -135 -9
-54 -18 -100 -20 -102 -2 -1 -10 1 -17 5 -16 11 -61 13 -68 3 -3 -4 -11 -1
-18 7 -11 12 -8 14 15 14 36 1 75 33 67 54 -9 23 -40 28 -122 18 -82 -10 -79
-13 -66 81 l7 46 71 11 c145 23 172 31 173 52 2 19 -5 19 -53 1 -7 -2 -15 0
-19 6 -3 6 0 11 7 11 8 0 26 6 40 12 33 16 34 46 1 40 -18 -3 -22 -1 -17 12 7
19 -5 20 -91 6 -33 -5 -99 -12 -147 -14 -120 -7 -173 -22 -194 -54 -38 -57
-16 -98 49 -94 31 3 30 7 17 -108 -6 -47 -17 -146 -25 -220 -9 -74 -18 -148
-20 -165 -5 -41 18 -75 51 -73 15 2 29 8 31 15 3 7 11 13 17 13 24 0 55 85 65
175 6 49 14 92 18 96 8 7 167 29 216 29 24 0 27 -4 27 -32 0 -56 19 -104 58
-148 106 -119 260 -13 342 237 24 75 26 178 5 250 -16 54 -46 89 -69 80 -8 -3
-20 1 -26 9 -17 19 -37 18 -50 -3 -10 -16 -10 -16 -5 3 7 26 -4 56 -16 48 -5
-3 -7 -9 -5 -13 3 -4 -4 -13 -15 -20 -19 -11 -20 -10 -17 21 3 35 -8 42 -51
29z m119 -131 c0 -5 -2 -10 -4 -10 -3 0 -8 5 -11 10 -3 6 -1 10 4 10 6 0 11
-4 11 -10z m-13 -57 c24 -77 24 -176 -1 -228 -27 -55 -66 -105 -81 -105 -20 0
-38 95 -32 164 9 92 60 226 86 226 5 0 17 -26 28 -57z"/>
</g>
</svg>
